# xmcd
#
# Track frame offsets:
#	150
#	12547
#	25322
#	39285
#	50385
#	62987
#	75287
#	87094
#	99319
#	110426
#	123626
#	134435
#	149917
#
# Disc length: 2194 seconds
#
# Revision: 1
# Processed by: cddbd v1.4PL0 Copyright (c) Steve Scherf et al.
# Submitted via: audiograbber 1.82.02
#
DISCID=af08900d
DTITLE=The Platters - On the Sentimental Side
DYEAR=2001
DGENRE=
TTITLE0=The Great Pretender
TTITLE1=Only You
TTITLE2=My Prayer
TTITLE3=The Magic Touch
TTITLE4=Twilight Time
TTITLE5=Smoke Gets In Your Eyes
TTITLE6=Heaven On Earth
TTITLE7=You'll Never Know
TTITLE8=It Isn't Right
TTITLE9=I'm Sorry
TTITLE10=Red Sails In The Sunset
TTITLE11=Harbour Lights
TTITLE12=The Wonder Of You
EXTD=
EXTT0=
EXTT1=
EXTT2=
EXTT3=
EXTT4=
EXTT5=
EXTT6=
EXTT7=
EXTT8=
EXTT9=
EXTT10=
EXTT11=
EXTT12=
PLAYORDER=
